<svg xmlns="http://www.w3.org/2000/svg" xmlns:xlink="http://www.w3.org/1999/xlink" width="250" zoomAndPan="magnify" viewBox="0 0 187.92 83.04" height="100" preserveAspectRatio="xMidYMid meet" version="1.0"><defs><g/><clipPath id="04b9f4e8ac"><path d="M 56 29.640625 L 72.917969 29.640625 L 72.917969 46.691406 L 56 46.691406 Z M 56 29.640625 " clip-rule="nonzero"/></clipPath><clipPath id="0eb60bf765"><rect x="0" width="54" y="0" height="19"/></clipPath></defs><g clip-path="url(#04b9f4e8ac)"><path fill="#e46911" d="M 72.707031 46.125 L 67.863281 36.378906 C 66.433594 37.65625 65.179688 39.894531 65.25 41.730469 L 66.714844 44.621094 C 66.769531 44.722656 66.859375 44.804688 66.96875 44.84375 L 72.132812 46.765625 C 72.523438 46.910156 72.894531 46.5 72.707031 46.125 Z M 64.011719 40.800781 C 64 40.816406 63.988281 40.835938 63.976562 40.859375 L 62.136719 44.585938 C 62.085938 44.691406 61.996094 44.773438 61.882812 44.816406 L 56.625 46.773438 C 56.234375 46.917969 55.867188 46.511719 56.046875 46.136719 L 63.855469 29.996094 C 64.019531 29.648438 64.515625 29.644531 64.683594 29.992188 L 67.695312 36.046875 C 66.046875 37.226562 64.753906 38.875 64.011719 40.800781 " fill-opacity="1" fill-rule="nonzero"/></g><g transform="matrix(1, 0, 0, 1, 72, 30)"><g clip-path="url(#0eb60bf765)"><g fill="#f9f7f8" fill-opacity="1"><g transform="translate(0.90687, 13.77294)"><g><path d="M 7.390625 -5.890625 C 7.390625 -5.390625 7.273438 -4.929688 7.046875 -4.515625 C 6.816406 -4.097656 6.460938 -3.757812 5.984375 -3.5 C 5.503906 -3.25 4.910156 -3.125 4.203125 -3.125 L 2.890625 -3.125 L 2.890625 0 L 0.765625 0 L 0.765625 -8.703125 L 4.203125 -8.703125 C 4.890625 -8.703125 5.472656 -8.582031 5.953125 -8.34375 C 6.429688 -8.101562 6.789062 -7.769531 7.03125 -7.34375 C 7.269531 -6.925781 7.390625 -6.441406 7.390625 -5.890625 Z M 4.046875 -4.8125 C 4.441406 -4.8125 4.738281 -4.90625 4.9375 -5.09375 C 5.132812 -5.28125 5.234375 -5.546875 5.234375 -5.890625 C 5.234375 -6.242188 5.132812 -6.515625 4.9375 -6.703125 C 4.738281 -6.890625 4.441406 -6.984375 4.046875 -6.984375 L 2.890625 -6.984375 L 2.890625 -4.8125 Z M 4.046875 -4.8125 "/></g></g></g><g fill="#f9f7f8" fill-opacity="1"><g transform="translate(8.638304, 13.77294)"><g><path d="M 6.1875 -1.53125 L 2.9375 -1.53125 L 2.421875 0 L 0.203125 0 L 3.34375 -8.703125 L 5.796875 -8.703125 L 8.953125 0 L 6.703125 0 Z M 5.640625 -3.171875 L 4.5625 -6.359375 L 3.5 -3.171875 Z M 5.640625 -3.171875 "/></g></g></g><g fill="#f9f7f8" fill-opacity="1"><g transform="translate(17.769824, 13.77294)"><g><path d="M 8.234375 -8.703125 L 5.21875 -2.875 L 5.21875 0 L 3.09375 0 L 3.09375 -2.875 L 0.09375 -8.703125 L 2.484375 -8.703125 L 4.171875 -5.0625 L 5.84375 -8.703125 Z M 8.234375 -8.703125 "/></g></g></g><g fill="#f9f7f8" fill-opacity="1"><g transform="translate(26.083593, 13.77294)"><g><path d="M 5.203125 0 L 3.390625 -3.28125 L 2.890625 -3.28125 L 2.890625 0 L 0.765625 0 L 0.765625 -8.703125 L 4.328125 -8.703125 C 5.015625 -8.703125 5.597656 -8.582031 6.078125 -8.34375 C 6.554688 -8.101562 6.914062 -7.773438 7.15625 -7.359375 C 7.394531 -6.941406 7.515625 -6.472656 7.515625 -5.953125 C 7.515625 -5.378906 7.351562 -4.863281 7.03125 -4.40625 C 6.707031 -3.957031 6.226562 -3.632812 5.59375 -3.4375 L 7.59375 0 Z M 2.890625 -4.78125 L 4.203125 -4.78125 C 4.585938 -4.78125 4.875 -4.875 5.0625 -5.0625 C 5.257812 -5.257812 5.359375 -5.53125 5.359375 -5.875 C 5.359375 -6.207031 5.257812 -6.46875 5.0625 -6.65625 C 4.875 -6.84375 4.585938 -6.9375 4.203125 -6.9375 L 2.890625 -6.9375 Z M 2.890625 -4.78125 "/></g></g></g><g fill="#f9f7f8" fill-opacity="1"><g transform="translate(34.161953, 13.77294)"><g><path d="M 6.1875 -1.53125 L 2.9375 -1.53125 L 2.421875 0 L 0.203125 0 L 3.34375 -8.703125 L 5.796875 -8.703125 L 8.953125 0 L 6.703125 0 Z M 5.640625 -3.171875 L 4.5625 -6.359375 L 3.5 -3.171875 Z M 5.640625 -3.171875 "/></g></g></g><g fill="#f9f7f8" fill-opacity="1"><g transform="translate(43.293473, 13.77294)"><g><path d="M 2.890625 -8.703125 L 2.890625 0 L 0.765625 0 L 0.765625 -8.703125 Z M 2.890625 -8.703125 "/></g></g></g><g fill="#f9f7f8" fill-opacity="1"><g transform="translate(46.948557, 13.77294)"><g><path d="M 2.890625 -1.640625 L 5.65625 -1.640625 L 5.65625 0 L 0.765625 0 L 0.765625 -8.703125 L 2.890625 -8.703125 Z M 2.890625 -1.640625 "/></g></g></g></g></g></svg>